<svg width="45" height="45" viewBox="0 0 45 45" xmlns="http://www.w3.org/2000/svg">
    <g fill="none" fill-rule="evenodd">
        <path d="M16 0h13c8.837 0 16 7.163 16 16v13c0 8.837-7.163 16-16 16H16C7.163 45 0 37.837 0 29V16C0 7.163 7.163 0 16 0z" fill-opacity=".25" fill="#A1DDE0"/>
        <path fill="#A1DDE0" d="M1.737 1.737h41.527v41.527H1.737z"/>
        <path d="M22.5 12.5c-5.523 0-10 4.477-10 10s4.477 10 10 10 10-4.477 10-10-4.477-10-10-10zm0 4a1 1 0 0 1 1 1v4.562l2.719 2.719c.39.391.39 1.047 0 1.438a1.03 1.03 0 0 1-1.438 0l-3-3a1.018 1.018 0 0 1-.281-.719v-5a1 1 0 0 1 1-1z" fill="#FFF" fill-rule="nonzero"/>
    </g>
</svg>
