<svg width="34" height="34" viewBox="0 0 34 34" xmlns="http://www.w3.org/2000/svg">
    <g fill="none" fill-rule="evenodd">
        <path d="M33.551 17c0 9.388-7.51 17-16.775 17C7.51 34 0 26.388 0 17S7.51 0 16.776 0C26.04 0 33.55 7.612 33.55 17" fill-opacity=".4" fill="#EAF5F9"/>
        <path d="M22.376 14.744c0 2.955-2.365 5.352-5.28 5.352-2.918 0-5.281-2.397-5.281-5.352 0-2.955 2.363-5.35 5.28-5.35 2.916 0 5.28 2.395 5.28 5.35z" stroke="#4385A7" stroke-width="2" stroke-linecap="round" stroke-linejoin="round"/>
        <path d="m25.566 27.014-2.343-1.325a12.414 12.414 0 0 0-12.243 0L7.83 27.47c-1.65.933-3.768.469-4.814-1.127-4.48-6.828-3.61-16.197 2.61-22.039 6.111-5.739 16.84-5.739 22.95 0 7.07 6.64 7.228 17.837.475 24.68a16.738 16.738 0 0 1-20.95 2.39" stroke="#4385A7" stroke-width="2" stroke-linecap="round" stroke-linejoin="round"/>
        <path d="M19.592 8.685a5.23 5.23 0 0 0-5.633 1.663" stroke="#4385A7" stroke-width="2" stroke-linecap="round" stroke-linejoin="round"/>
    </g>
</svg>
